<svg id="2c84e028-9804-4df3-b7b0-55d4b9fd0a50" data-name="Layer 1" xmlns="http://www.w3.org/2000/svg" viewBox="0 0 695.08197 599.23372">
  <defs>
    <style>
      .e5c622bb-eb00-4f11-a0e9-2d5dc55b5e97 {
        fill: #303530;
      }

      .c8d1dec0-9591-42dc-aa3a-6965074e1f03 {
        fill: #2d2520;
      }

      .ee58db79-f791-4ad4-ba5c-c26ed586df92 {
        fill: #4e7572;
      }

      .c4366343-c5cd-437f-9523-d973bb4665e2 {
        fill: #b5b5b5;
      }

      .a817e0d7-9df6-41bf-bab1-14379f32500b {
        fill: #7c7c7c;
      }

      .\35 fc27721-6d76-485d-ab85-18eb66d6447d {
        fill: #4d5bac;
      }

      .\34 ff315fd-e0a4-49eb-96d8-96b36d84e496, .\36 7693b52-affd-4498-a0c7-71b3b8df34f3 {
        fill: none;
        stroke-miterlimit: 10;
      }

      .\36 7693b52-affd-4498-a0c7-71b3b8df34f3 {
        stroke: #000;
      }

      .\34 ff315fd-e0a4-49eb-96d8-96b36d84e496 {
        stroke: gray;
        stroke-width: 9px;
      }

      .\30 5935db6-ad20-4e27-9f0b-dee4891afca0 {
        fill: #21170f;
      }

      .f53e74ba-607e-4dcf-8554-5e2dc1185c1b {
        fill: #976244;
      }

      .e4e1ba23-4add-4116-91b3-b5f6b251ab1f {
        fill: #744e38;
      }

      .\36 5d376d3-92fc-4763-9485-4989b20f1dca {
        fill: #594739;
      }

      .\32 8cd5dbc-7fbf-42e0-ae82-74ff7ae01090 {
        fill: #565656;
      }
    </style>
  </defs>
  <title>pyload</title>
  <rect class="e5c622bb-eb00-4f11-a0e9-2d5dc55b5e97" x="16.39344" y="239.47416" width="110.13934" height="237.37705"/>
  <rect class="c8d1dec0-9591-42dc-aa3a-6965074e1f03" x="109.83607" y="386.68728" width="513.11475" height="95.45355"/>
  <path class="ee58db79-f791-4ad4-ba5c-c26ed586df92" d="M739.59,500V485.03H711.72V500h-59.7a170.60123,170.60123,0,0,1-8.1,20.92c-0.27.58-.53,1.15-0.81,1.73A169.84189,169.84189,0,0,1,633.59,540q-3.64508,5.88-7.77,11.46-1.395,1.89-2.85,3.74005A173.26166,173.26166,0,0,1,608.36,571.71l-0.39.39c-0.96.96-1.93994,1.92-2.93994,2.86-0.09.08-.17,0.16-0.26,0.24005q-5.58,5.25-11.62,10.02c-0.63.49-1.47,1.05-2.41,1.65a0.05311,0.05311,0,0,1-.03.02,48.3064,48.3064,0,0,0-7.27,5.18,5.5774,5.5774,0,0,0-1.53,2.24,32.61093,32.61093,0,0,0,5.7.89c4.63,0.37,9.55.08,13.93,0.08q3.3,0,6.58-.08c35.1-.8,67.98-7.98,96.45-20q3.63-1.53,7.15-3.16A210.35631,210.35631,0,0,0,739.59,556.54c0.68-.43,1.35-0.88,2.00995-1.34A180.84765,180.84765,0,0,0,761.04,540a143.6569,143.6569,0,0,0,31.58-40H739.59ZM609.5,570.8v0.01c-0.07.05-.13,0.09-0.19,0.13A1.32922,1.32922,0,0,1,609.5,570.8Zm50.26-122.3h0.01v-1h-0.01c0-.59,0-1.18-0.01-1.78-0.01-.78-0.03-1.56-0.05-2.34q-0.09-3.06006-.27-6.13a173.74025,173.74025,0,0,0-39.87-100.81c25.88,31.06,39.9,70.89,40.19,111.06C659.76,447.83,659.76,448.17,659.76,448.5Z" transform="translate(-161.96721 -188.50944)"/>
  <path class="ee58db79-f791-4ad4-ba5c-c26ed586df92" d="M805.58,448.34A111.01163,111.01163,0,0,1,792.62,500H740V485H712v15H651.89a176.83836,176.83836,0,0,0,7.54-41.25c0.10669-1.82263.18073-3.63623,0.24005-5.45007,0.02179-.88.06152-1.76,0.06995-2.64a0.5697,0.5697,0,0,0,.01-0.13c0.01-.6.01-1.53,0.01-1.53H660v-1h-0.24c0-1,0-1.43-.01-2.03-0.01-.78-0.03-1.685-0.05-2.465-0.06-2.04-.15-4.14252-0.27-6.1925a173.82992,173.82992,0,0,0-39.87-100.84125c-2.7-3.23-5.53-6.39563-8.51-9.46564-0.51-.52-1.02-1.04779-1.53-1.5578-0.51-.52-1.03-1.03394-1.55-1.54395-0.00995,0-.02-0.002-0.02-0.0119-0.9-.89-1.8-1.761-2.71-2.591-0.91-.87-1.84-1.71051-2.77-2.55048-1.25995-1.13-2.53-2.24023-3.83-3.33026-1.29-1.09-2.61-2.18011-3.95-3.24011-1.5-1.19-3.02-2.37006-4.57-3.52008q-4.665-3.465-9.62-6.69c7-.52,14.03-0.63,21.06-0.63a190.07913,190.07913,0,0,1,23.97,1.16C726.9,310.5,805.58,373.01,805.58,448.34Z" transform="translate(-161.96721 -188.50944)"/>
  <path class="c4366343-c5cd-437f-9523-d973bb4665e2" d="M659.77,448v0.5H449.5V448q0-1.305-.03-2.61c-0.67-28.89-11.68994-56.7-33.97-78.03v-0.15l-0.17-.16c39.28-35.82,101.12-60.54,165.1-65.55h0.07v0.47q4.965,3.225,9.62,6.69c1.55,1.15,3.07,2.33,4.57,3.52,1.34,1.06,2.66,2.15,3.95,3.24q1.95,1.65,3.83,3.33c0.93005,0.85,1.86,1.69,2.77,2.55,0.92,0.86,1.82,1.72,2.71,2.59,0,0.00995.01,0.00995,0.02,0.00995,0.52,0.51,1.04,1.02,1.55,1.54,0.51,0.51,1.02,1.03,1.53,1.55q4.47006,4.605,8.51,9.45a173.74025,173.74025,0,0,1,39.87,100.81q0.18,3.075.27,6.13c0.02,0.78.04,1.56,0.05,2.34,0.01,0.6.01,1.19,0.01,1.78C659.77,447.67,659.77,447.83,659.77,448Z" transform="translate(-161.96721 -188.50944)"/>
  <rect class="c4366343-c5cd-437f-9523-d973bb4665e2" x="126.53279" y="151.99056" width="105" height="216"/>
  <path class="a817e0d7-9df6-41bf-bab1-14379f32500b" d="M630,272l-1.5,11.5c-31-8-53,1.5-53,1.5L575,272s1.85-.65,4.98-1.47c9.04-2.37,28.79-6.21,45.78-.25A44.251,44.251,0,0,1,630,272Z" transform="translate(-161.96721 -188.50944)"/>
  <path class="c4366343-c5cd-437f-9523-d973bb4665e2" d="M628.5,283.59874l-2.5,3.09245L625.53,302.875c-22.33-3.09245-45.07-.2577-45.07-0.2577l-0.96-13.86448-4-3.60785S597.5,275.35222,628.5,283.59874Z" transform="translate(-161.96721 -188.50944)"/>
  <path class="5fc27721-6d76-485d-ab85-18eb66d6447d" d="M625.76,270.28c-16.99-5.96-36.74-2.12-45.78.25l2.52-24.03s28-10.5,40.5,1.5Z" transform="translate(-161.96721 -188.50944)"/>
  <line class="67693b52-affd-4498-a0c7-71b3b8df34f3" x1="287.53279" y1="260.49056" x2="287.53279" y2="260.49056"/>
  <line class="67693b52-affd-4498-a0c7-71b3b8df34f3" x1="253.18279" y1="178.70056" x2="253.17279" y2="178.69056"/>
  <path class="c4366343-c5cd-437f-9523-d973bb4665e2" d="M659.77,447.5V448c0,0.17,0,.33-0.01.5,0,0.59,0,1.18-.01,1.78,0,0.13,0,.25-0.01.38-0.01.65-.02,1.31-0.04,1.96q-0.09,3.06-.27,6.13A176.83836,176.83836,0,0,1,651.89,500a174.30808,174.30808,0,0,1-7.97,20.92c-0.27.58-.53,1.15-0.81,1.73A169.41336,169.41336,0,0,1,633.7,540a171.30084,171.30084,0,0,1-22.65,29.01c-0.51.52-1.02,1.04-1.53,1.55-0.38.39-.77,0.77-1.16,1.15l-0.39.39c-0.00995,0-.02,0-0.02.01-0.89.87-1.79,1.73-2.71,2.59-0.18.17-.36,0.34-0.54,0.5-0.73.69-1.48,1.37-2.23,2.05q-1.875,1.68-3.83,3.33c-1.29,1.09-2.61,2.18005-3.95,3.24005-1.3,1.03-2.61,2.05-3.95,3.05a0.05311,0.05311,0,0,1-.03.02c-0.19.15-.39,0.3-0.59,0.45-2.18,1.62-4.4,3.2-6.68,4.73-0.97.67-1.95,1.32-2.94,1.96v0.47h-0.07a316.56084,316.56084,0,0,1-38.13-5.34c-9.46-1.9-18.78-4.23-27.87-6.94q-10.65-3.165-20.85-7.02a276.98784,276.98784,0,0,1-42.2-20A228.5928,228.5928,0,0,1,428.62,540c-4.52-3.44-8.83-7-12.89-10.69-0.14-.12-0.27-0.24-0.4-0.36l0.17-.16v-0.15A109.23834,109.23834,0,0,0,437.03,500a112.35572,112.35572,0,0,0,12.43976-49.38544l0.00037-.026c0.01971-.693.02972-1.39569,0.01984-2.08856,0.01-.17.01-0.33,0.01-0.5v-0.5H659.77Z" transform="translate(-161.96721 -188.50944)"/>
  <polyline class="4ff315fd-e0a4-49eb-96d8-96b36d84e496" points="497.793 258.991 497.783 258.991 287.533 259.991 287.523 259.991 283.033 260.011"/>
  <circle class="05935db6-ad20-4e27-9f0b-dee4891afca0" cx="436.39344" cy="549.15722" r="50.0765"/>
  <circle class="05935db6-ad20-4e27-9f0b-dee4891afca0" cx="296.39344" cy="549.15722" r="50.0765"/>
  <path class="a817e0d7-9df6-41bf-bab1-14379f32500b" d="M451.25,448v0.5a110.71062,110.71062,0,0,1-35.1347,81.1A155.44571,155.44571,0,0,1,393.5,505.12V391.26a155.25059,155.25059,0,0,1,22.14091-23.9c22.91441,21.33,34.846,49.14,35.57813,78.03Q451.25,446.695,451.25,448Z" transform="translate(-161.96721 -188.50944)"/>
  <rect class="f53e74ba-607e-4dcf-8554-5e2dc1185c1b" x="37.70277" y="311.49056" width="657.38" height="40"/>
  <rect class="f53e74ba-607e-4dcf-8554-5e2dc1185c1b" x="37.70492" y="366.68728" width="657.37705" height="40"/>
  <rect class="f53e74ba-607e-4dcf-8554-5e2dc1185c1b" x="37.70492" y="421.884" width="657.37705" height="40"/>
  <rect class="e4e1ba23-4add-4116-91b3-b5f6b251ab1f" x="155.16393" y="296.52334" width="27.86885" height="180.32787"/>
  <rect class="e4e1ba23-4add-4116-91b3-b5f6b251ab1f" x="549.75276" y="296.52052" width="27.87006" height="180.33002"/>
  <rect class="e4e1ba23-4add-4116-91b3-b5f6b251ab1f" x="352.45902" y="296.52334" width="27.86885" height="180.32787"/>
  <rect class="65d376d3-92fc-4763-9485-4989b20f1dca" x="37.70492" y="476.85121" width="657.37705" height="20"/>
  <rect class="f53e74ba-607e-4dcf-8554-5e2dc1185c1b" x="201.63934" y="496.85121" width="329.5082" height="44.2623"/>
  <rect class="e4e1ba23-4add-4116-91b3-b5f6b251ab1f" x="189.69945" y="496.85121" width="11.93989" height="52.30601"/>
  <rect class="e4e1ba23-4add-4116-91b3-b5f6b251ab1f" x="531.14754" y="496.85121" width="11.93989" height="52.30601"/>
  <rect class="f53e74ba-607e-4dcf-8554-5e2dc1185c1b" x="201.63934" y="555.82389" width="329.5082" height="38.66667"/>
  <rect class="e4e1ba23-4add-4116-91b3-b5f6b251ab1f" x="189.69945" y="555.82389" width="11.93989" height="38.66667"/>
  <rect class="e4e1ba23-4add-4116-91b3-b5f6b251ab1f" x="531.14754" y="555.82389" width="11.93989" height="38.66667"/>
  <rect class="e4e1ba23-4add-4116-91b3-b5f6b251ab1f" x="192.33607" y="549.15722" width="6.66667" height="6.66667"/>
  <rect class="e4e1ba23-4add-4116-91b3-b5f6b251ab1f" x="533.78415" y="549.15722" width="6.66667" height="6.66667"/>
  <path class="67693b52-affd-4498-a0c7-71b3b8df34f3" d="M415.61,529.6c-0.15.15-.31,0.31-0.47,0.46" transform="translate(-161.96721 -188.50944)"/>
  <rect class="28cd5dbc-7fbf-42e0-ae82-74ff7ae01090" y="200.1299" width="126.53279" height="39.34426"/>
  <path class="c4366343-c5cd-437f-9523-d973bb4665e2" d="M260.5,291.25V388.5H214.43l1.64-97.32L199.68,200.1l-0.01-.03s12.05-17,45.9-9.83c0.03,0.01.05,0.01,0.08,0.02Z" transform="translate(-161.96721 -188.50944)"/>
  <polygon class="28cd5dbc-7fbf-42e0-ae82-74ff7ae01090" points="53.033 131.491 53.033 170.491 53.033 170.491 53.033 192.491 45.033 192.491 45.033 178.491 48.033 178.491 48.033 170.491 42.033 170.491 42.033 131.491 53.033 131.491"/>
</svg>
